<svg width="56" height="56" viewBox="0 0 56 56" fill="none" xmlns="http://www.w3.org/2000/svg">
<g id="Icon_setting">
<path id="Union" d="M24.0147 7C23.4857 7 23.0332 7.36657 22.942 7.869L22.1621 12.1663C20.1453 12.8577 18.2995 13.8972 16.7027 15.2098L12.4485 13.7108C11.9517 13.5358 11.3962 13.7303 11.1317 14.1721L7.14638 20.828C6.88188 21.2697 6.98488 21.8308 7.39054 22.1582L10.8615 24.9591C10.6745 25.9454 10.5768 26.9617 10.5768 28C10.5768 29.0382 10.6745 30.0544 10.8614 31.0406L7.39012 33.8418C6.98445 34.1692 6.88145 34.7303 7.14595 35.172L11.1313 41.8279C11.3958 42.2697 11.9513 42.4642 12.4481 42.2891L16.7026 40.7901C18.2994 42.1028 20.1452 43.1423 22.1621 43.8337L22.942 48.131C23.0332 48.6334 23.4857 49 24.0147 49H31.9853C32.5143 49 32.9668 48.6334 33.058 48.131L33.8379 43.8337C35.8548 43.1423 37.7005 42.1028 39.2974 40.7901L43.5519 42.2892C44.0487 42.4643 44.6042 42.2697 44.8687 41.828L48.8541 35.1721C49.1185 34.7303 49.0156 34.1692 48.6099 33.8418L45.1386 31.0406C45.3255 30.0544 45.4232 29.0382 45.4232 28C45.4232 26.9617 45.3255 25.9454 45.1385 24.9591L48.6095 22.1582C49.0151 21.8308 49.1181 21.2697 48.8536 20.8279L44.8683 14.172C44.6038 13.7303 44.0483 13.5357 43.5515 13.7108L39.2973 15.2098C37.7004 13.8972 35.8547 12.8577 33.8379 12.1663L33.058 7.869C32.9668 7.36657 32.5143 7 31.9853 7H24.0147Z" stroke="#949494" stroke-width="4"/>
<circle id="Ellipse 186" cx="28" cy="28" r="8" stroke="#949494" stroke-width="4"/>
</g>
</svg>
