<svg width="56" height="56" viewBox="0 0 56 56" fill="none" xmlns="http://www.w3.org/2000/svg">
<g id="Icon_myplaylists">
<path id="Rectangle 3" d="M45 43H11C9.89543 43 9 42.1046 9 41V28.1589C9 27.7804 9.10741 27.4096 9.30975 27.0897L17.6331 13.9309L15.9429 12.8617L17.6331 13.9309C17.9997 13.3513 18.6376 13 19.3234 13H36.6766C37.3624 13 38.0003 13.3513 38.3669 13.9309L46.6903 27.0897C46.8926 27.4096 47 27.7804 47 28.1589V41C47 42.1046 46.1046 43 45 43Z" stroke="#EBEBEB" stroke-width="4" stroke-linejoin="round"/>
<path id="Rectangle 4" d="M47 29H40.1866C39.3311 29 38.5703 29.5441 38.2939 30.3537L37.1696 33.6463C36.8931 34.4559 36.1324 35 35.2769 35H20.7231C19.8676 35 19.1069 34.4559 18.8304 33.6463L17.7061 30.3537C17.4297 29.5441 16.6689 29 15.8134 29H9" stroke="#EBEBEB" stroke-width="4" stroke-linecap="round"/>
</g>
</svg>
